<svg xmlns="http://www.w3.org/2000/svg" aria-hidden="true" style="position:absolute;width:0;height:0;overflow:hidden">
  <defs>
    <symbol id="icon-twitter-2" viewBox="0 0 38 32">
      <path d="M31.802 7.466c-.965.424-1.994.704-3.066.84a5.292 5.292 0 0 0 2.341-2.941 10.641 10.641 0 0 1-3.374 1.288 5.319 5.319 0 0 0-9.204 3.638c0 .422.036.827.123 1.213-4.424-.216-8.338-2.336-10.968-5.566a5.358 5.358 0 0 0-.728 2.689c0 1.843.949 3.476 2.364 4.422a5.249 5.249 0 0 1-2.404-.655v.059a5.345 5.345 0 0 0 4.263 5.228 5.327 5.327 0 0 1-1.395.175 4.67 4.67 0 0 1-1.008-.091c.689 2.107 2.646 3.657 4.972 3.707a10.691 10.691 0 0 1-6.597 2.269 9.9 9.9 0 0 1-1.274-.073 14.979 14.979 0 0 0 8.163 2.388c9.791 0 15.144-8.111 15.144-15.141 0-.235-.008-.462-.019-.688a10.606 10.606 0 0 0 2.667-2.763z"/>
    </symbol>
    <symbol id="icon-chocolate-bar" viewBox="0 0 32 32">
      <path d="M13.822 2.413 21.35 9.95l.08-.08a.854.854 0 0 1 1.185-.012l.873.873c.305.304.316.77.084 1.093l-.005.008-.143.192 6.16 6.16c.55.55.55 1.43 0 1.98l-9.43 9.43c-.55.55-1.43.55-1.98 0l-4.447-4.448a.841.841 0 0 1-1.255.072l-2.6-2.6a.854.854 0 0 1-.012-1.185l.006-.008.077-.076-7.527-7.527c-.55-.55-.55-1.43 0-1.98l9.43-9.43c.55-.55 1.43-.55 1.98 0v.002zm6.582 8.48-1.756-1.755a.59.59 0 0 0-.85 0l-3.58 3.58a.607.607 0 0 0 0 .86l1.75 1.75.61-.61-1.566-1.566 3.21-3.22 1.57 1.575.612-.614zm-5.075 5.072-1.755-1.754a.59.59 0 0 0-.85 0l-3.59 3.591c-.24.23-.24.61 0 .85l1.752 1.752.617-.616-1.57-1.564 3.22-3.21 1.563 1.563.613-.612zm-6.507-7.77 3.58 3.58c.24.24.62.24.85-.01l3.58-3.58a.579.579 0 0 0 .18-.42h.01c0-.15-.06-.31-.18-.43l-3.58-3.58a.603.603 0 0 0-.86 0l-3.58 3.59c-.24.23-.24.61 0 .85zm-5.07 5.07 3.58 3.58c.24.24.62.24.85 0l3.58-3.58a.579.579 0 0 0 .18-.42v-.01.001h.01c0-.16-.06-.31-.18-.43l-3.58-3.58a.59.59 0 0 0-.85 0l-3.59 3.59c-.24.23-.24.61 0 .85zm6.933 8.753 2.362 2.364 9.636-13.04-.654-.655-11.344 11.331z"/>
      <path d="M13.822 2.413 21.35 9.95l.08-.08a.854.854 0 0 1 1.185-.012l.873.873c.305.304.316.77.084 1.093l-.005.008-.143.192 6.16 6.16c.55.55.55 1.43 0 1.98l-9.43 9.43c-.55.55-1.43.55-1.98 0l-4.447-4.448a.841.841 0 0 1-1.255.072l-2.6-2.6a.854.854 0 0 1-.012-1.185l.006-.008.077-.076-7.527-7.527c-.55-.55-.55-1.43 0-1.98l9.43-9.43c.55-.55 1.43-.55 1.98 0v.002zm6.582 8.48-1.756-1.755a.59.59 0 0 0-.85 0l-3.58 3.58a.607.607 0 0 0 0 .86l1.75 1.75.61-.61-1.566-1.566 3.21-3.22 1.57 1.575.612-.614zm-5.075 5.072-1.755-1.754a.59.59 0 0 0-.85 0l-3.59 3.591c-.24.23-.24.61 0 .85l1.752 1.752.617-.616-1.57-1.564 3.22-3.21 1.563 1.563.613-.612zm-6.507-7.77 3.58 3.58c.24.24.62.24.85-.01l3.58-3.58a.579.579 0 0 0 .18-.42h.01c0-.15-.06-.31-.18-.43l-3.58-3.58a.603.603 0 0 0-.86 0l-3.58 3.59c-.24.23-.24.61 0 .85zm-5.07 5.07 3.58 3.58c.24.24.62.24.85 0l3.58-3.58a.579.579 0 0 0 .18-.42v-.01.001h.01c0-.16-.06-.31-.18-.43l-3.58-3.58a.59.59 0 0 0-.85 0l-3.59 3.59c-.24.23-.24.61 0 .85zm6.933 8.753 2.362 2.364 9.636-13.04-.654-.655-11.344 11.331z"/>
    </symbol>
    <symbol id="icon-facebook" viewBox="0 0 32 32">
      <path d="M19.52 4.64h.96v3.6h-1.2c-.48 0-.96 0-1.2.24s-.24.48-.24 1.04v1.28h2.64v3.04h-2.64v13.2h-4.08V13.76H11.6v-3.04h2.16V9.68c0-1.76.24-3.04.72-3.6.72-1.04 2.16-1.52 4.32-1.52.24.08.48.08.72.08z"/>
    </symbol>
    <symbol id="icon-instagram" viewBox="0 0 32 32">
      <path d="M28.717 10.756a9.258 9.258 0 0 0-.617-3.209l.021.063a6.585 6.585 0 0 0-3.698-3.722l-.044-.015a9.211 9.211 0 0 0-3.097-.596h-.01c-1.368-.06-1.801-.077-5.273-.077s-3.916 0-5.275.077a9.378 9.378 0 0 0-3.171.618l.064-.022A6.58 6.58 0 0 0 3.89 7.566l-.015.044a9.114 9.114 0 0 0-.595 3.092v.009c-.061 1.367-.08 1.8-.08 5.265 0 3.467 0 3.908.08 5.265a9.336 9.336 0 0 0 .616 3.168l-.022-.064a6.585 6.585 0 0 0 3.701 3.719l.044.015c.917.37 1.98.602 3.091.64h.016c1.368.06 1.801.079 5.273.079s3.916 0 5.275-.08a9.377 9.377 0 0 0 3.171-.616l-.064.022a6.591 6.591 0 0 0 3.728-3.692l.016-.044a9.15 9.15 0 0 0 .595-3.095v-.009c.061-1.365.08-1.799.08-5.267-.003-3.465-.003-3.904-.083-5.263zM15.989 22.531h-.005a6.565 6.565 0 0 1-6.565-6.56 6.565 6.565 0 0 1 6.565-6.561H15.997a6.567 6.567 0 0 1 6.567 6.56 6.567 6.567 0 0 1-6.567 6.561h-.007zm6.835-11.835a1.53 1.53 0 1 1 0-3.06 1.53 1.53 0 1 1 0 3.06z"/>
      <path d="M15.992 19.976a4.004 4.004 0 0 0 0-8.008 4.004 4.004 0 0 0 0 8.008z"/>
    </symbol>
    <symbol id="icon-price" viewBox="0 0 32 32">
      <path d="M16 .762C7.619.762.762 7.619.762 16S7.619 31.238 16 31.238 31.238 24.381 31.238 16 24.381.762 16 .762zm0 27.429C9.295 28.191 3.809 22.705 3.809 16S9.295 3.809 16 3.809 28.191 9.295 28.191 16 22.705 28.191 16 28.191z"/>
      <path d="M17.981 14.477H14.02c-.762 0-1.371-.61-1.371-1.371 0-.762.609-1.371 1.371-1.371h5.638c.914 0 1.523-.61 1.523-1.525s-.609-1.523-1.523-1.523h-2.134V7.316c0-.914-.609-1.523-1.523-1.523s-1.523.609-1.523 1.523v1.371h-.457a4.422 4.422 0 0 0-4.419 4.419 4.423 4.423 0 0 0 4.419 4.418h3.809c.762 0 1.371.61 1.371 1.371 0 .762-.609 1.371-1.371 1.371h-5.638c-.914 0-1.525.61-1.525 1.525s.61 1.523 1.525 1.523h2.286v1.371c0 .914.609 1.523 1.523 1.523s1.523-.609 1.523-1.523v-1.371h.457a4.422 4.422 0 0 0 4.419-4.419 4.423 4.423 0 0 0-4.419-4.418z"/>
    </symbol>
    <symbol id="icon-spoon" viewBox="0 0 32 32">
      <path d="M15.451 14.106a5.127 5.127 0 0 1-1.176-3.278v-.004c0-4.324 5.181-8.642 10.362-8.642a5.184 5.184 0 0 1 5.181 5.182c0 5.182-4.317 10.364-8.646 10.364h-.003a5.13 5.13 0 0 1-3.287-1.184l.009.007L5.133 29.312a1.73 1.73 0 0 1-2.444-2.446l-.001.001 12.764-12.761z"/>
    </symbol>
  </defs>
</svg>
